# xmcd
#
# Track frame offsets:
#	150
#	10935
#	21570
#	32700
#	45387
#	57582
#	70060
#	81500
#	93292
#	104560
#	116005
#	129067
#
# Disc length: 1873 seconds
#
# Revision: 1
# Processed by: cddbd v1.5PL3 Copyright (c) Steve Scherf et al.
# Submitted via: EasyCDDAExtractor 6.2.0.3
#
DISCID=9d074f0c
DTITLE=Roy Acuff - The Voice of Country Music
DYEAR=1900
DGENRE=
TTITLE0=Whoa Mule
TTITLE1=That's What Makes The Juke-Box Play
TTITLE2=River Of Crystal
TTITLE3=Six More Days
TTITLE4=Don't Say Goodbye
TTITLE5=Night Spots (Of The Town)
TTITLE6=Streamline Heartbreaker
TTITLE7=Sixteen Chickens And A Tambourine
TTITLE8=What Do You Think About Me
TTITLE9=Tied Down
TTITLE10=What Will I Do
TTITLE11=Lonesome Joe
EXTD=
EXTT0=
EXTT1=
EXTT2=
EXTT3=
EXTT4=
EXTT5=
EXTT6=
EXTT7=
EXTT8=
EXTT9=
EXTT10=
EXTT11=
PLAYORDER=
